 http://www.imdb.com/title/tt0338348/

Source: The.Polar.Express.2004.x264.720p.AC3.BDRiP-CHD Thanks!

Subs: Arabic, Czech, Danish, Dutch, English, Estonian, Farsi-Persian, German, Greek, Hebrew, Indonesian, Italian, Latvian, Lithuanian, Polish, Portuguese, Romanian, Russian, Spanish, Swedish and Vietnamese.

Sample and Screens included.

General
Complete name                            : The Polar Express-720p MP4 AAC x264 BRRip 2004-CC.mp4
Format                                   : MPEG-4
Format profile                           : Base Media
Codec ID                                 : isom
File size                                : 3.00 GiB
Duration                                 : 1h 39mn
Overall bit rate mode                    : Variable
Overall bit rate                         : 4 299 Kbps
Encoded date                             : UTC 2012-12-01 10:42:40

Video
ID                                       : 1
Format                                   : AVC
Format/Info                              : Advanced Video Codec
Format profile                           : High@L4.1
Format settings, CABAC                   : Yes
Format settings, ReFrames                : 5 frames
Codec ID                                 : avc1
Codec ID/Info                            : Advanced Video Coding
Duration                                 : 1h 39mn
Bit rate                                 : 4 032 Kbps
Maximum bit rate                         : 21.6 Mbps
Width                                    : 1 280 pixels
Height                                   : 528 pixels
Display aspect ratio                     : 2.40:1
Frame rate mode                          : Variable
Frame rate                               : 23.976 fps
Minimum frame rate                       : 19.048 fps
Maximum frame rate                       : 24.390 fps
Color space                              : YUV
Chroma subsampling                       : 4:2:0
Bit depth                                : 8 bits
Scan type                                : Progressive
Bits/(Pixel*Frame)                       : 0.249
Stream size                              : 2.73 GiB (91%)
Writing library                          : x264 core 112

Audio
ID                                       : 2
Format                                   : AAC
Format/Info                              : Advanced Audio Codec
Format profile                           : LC
Codec ID                                 : 40
Duration                                 : 1h 39mn
Bit rate mode                            : Variable
Bit rate                                 : 384 Kbps
Maximum bit rate                         : 757 Kbps
Channel(s)                               : 6 channels
Channel positions                        : Front: L C R, Side: L R, LFE
Sampling rate                            : 48.0 KHz
Compression mode                         : Lossy
Delay relative to video                  : 83ms
Stream size                              : 274 MiB (9%)


Enjoy...

Coming soon: The Gold Rush, Buffalo 66, Plain-Trains-Automobiles, The Objective and more...